HIERARCHY
ROOT Hips
{
	OFFSET 0.00000 0.00000 0.00000
	CHANNELS 6 Xposition Yposition Zposition Zrotation Yrotation Xrotation 
	JOINT LHipJoint
	{
		OFFSET 0 0 0
		CHANNELS 3 Zrotation Yrotation Xrotation
		JOINT LeftHip
		{
			OFFSET 1.53794 -1.55850 0.93568
			CHANNELS 3 Zrotation Yrotation Xrotation
			JOINT LeftKnee
			{
				OFFSET 2.28545 -6.27922 0.00000
				CHANNELS 3 Zrotation Yrotation Xrotation
				JOINT LeftAnkle
				{
					OFFSET 2.37329 -6.52057 0.00000
					CHANNELS 3 Zrotation Yrotation Xrotation
					JOINT LeftToe
					{
						OFFSET 0.14846 -0.40788 2.09160
						CHANNELS 3 Zrotation Yrotation Xrotation
						End Site
						{
							OFFSET 0.00000 -0.00000 1.07536
						}
					}
				}
			}
		}
	}
	JOINT RHipJoint
	{
		OFFSET 0 0 0
		CHANNELS 3 Zrotation Yrotation Xrotation
		JOINT RightHip
		{
			OFFSET -1.78290 -1.55850 0.93568
			CHANNELS 3 Zrotation Yrotation Xrotation
			JOINT RightKnee
			{
				OFFSET -2.24144 -6.15831 0.00000
				CHANNELS 3 Zrotation Yrotation Xrotation
				JOINT RightAnkle
				{
					OFFSET -2.35091 -6.45907 0.00000
					CHANNELS 3 Zrotation Yrotation Xrotation
					JOINT RightToe
					{
						OFFSET -0.14428 -0.39641 2.07944
						CHANNELS 3 Zrotation Yrotation Xrotation
						End Site
						{
							OFFSET -0.00000 -0.00000 1.06864
						}
					}
				}
			}
		}
	}
	JOINT lowerback
	{
		OFFSET 0 0 0
		CHANNELS 3 Zrotation Yrotation Xrotation
		JOINT Chest
		{
			OFFSET -0.08841 2.11430 -0.15818
			CHANNELS 3 Zrotation Yrotation Xrotation
			JOINT Chest2
			{
				OFFSET -0.00033 2.12605 -0.08097
				CHANNELS 3 Zrotation Yrotation Xrotation
				JOINT lowerneck
				{
					OFFSET 0 0 0
					CHANNELS 3 Zrotation Yrotation Xrotation
					JOINT Neck
					{
						OFFSET 0.04431 1.59447 0.43193
						CHANNELS 3 Zrotation Yrotation Xrotation
						JOINT Head
						{
							OFFSET 0.00455 1.62017 -0.58852
							CHANNELS 3 Zrotation Yrotation Xrotation
							End Site
							{
								OFFSET -0.00920 1.72955 -0.25850
							}
						}
					}
				}
				JOINT LeftCollar
				{
					OFFSET 0 0 0
					CHANNELS 3 Zrotation Yrotation Xrotation
					JOINT LeftShoulder
					{
						OFFSET 2.86490 1.49927 -0.33774
CHANNELS 3 Zrotation Xrotation Yrotation
						JOINT LeftElbow
						{
OFFSET 0 -4.874080 0.000000
CHANNELS 3 Zrotation Xrotation Yrotation
							JOINT LeftWrist
							{
OFFSET 0 -2.767290 0.000000
CHANNELS 3 Zrotation Xrotation Yrotation
								JOINT lhand
								{
									OFFSET 0 0 0
CHANNELS 3 Zrotation Xrotation Yrotation
									JOINT LFingers
									{
OFFSET 0 -0.989220 0.000000
CHANNELS 3 Zrotation Xrotation Yrotation
										End Site
										{
OFFSET 0 -0.797530 0.000000
										}
									}
								}
								JOINT LThumb
								{
OFFSET 0 0.000000 0.000000
CHANNELS 3 Zrotation Xrotation Yrotation
									End Site
									{
OFFSET 0 -0.809720 0.809720
									}
								}
							}
						}
					}
				}
				JOINT RightCollar
				{
					OFFSET 0 0 0
					CHANNELS 3 Zrotation Yrotation Xrotation
					JOINT RightShoulder
					{
						OFFSET -2.94414 1.45463 -0.25291
CHANNELS 3 Zrotation Xrotation Yrotation
						JOINT RightElbow
						{
OFFSET 0 -4.714040 0.000000
CHANNELS 3 Zrotation Xrotation Yrotation
							JOINT RightWrist
							{
OFFSET 0 -2.834680 0.000000
CHANNELS 3 Zrotation Xrotation Yrotation
								JOINT rhand
								{
									OFFSET 0 0 0
CHANNELS 3 Zrotation Xrotation Yrotation
									JOINT RFingers
									{
OFFSET 0 -0.868200 0.000000
CHANNELS 3 Zrotation Xrotation Yrotation
										End Site
										{
OFFSET 0 -0.699960 0.000000
										}
									}
								}
								JOINT RThumb
								{
OFFSET 0 0.000000 0.000000
CHANNELS 3 Zrotation Xrotation Yrotation
									End Site
									{
OFFSET 0 -0.710650 0.710650
									}
								}
							}
						}
					}
				}
			}
		}
	}
}
MOTION
Frames: 4
Frame Time: 0.008333333333333333
0.930651 15.664078 1.052213 175.266506 -1.938624 -170.217394 0.000000 0.000000 0.000000 -25.663792 -13.532752 -22.522940 4.155559 12.363888 37.032836 -1.036705 17.720203 -8.083238 0.259831 -3.274319 -9.043814 0.000000 0.000000 0.000000 15.486347 -1.804067 -11.324021 -16.634556 -19.718081 80.112905 0.931645 -20.208827 4.566934 -1.309918 7.249636 -20.457240 -6.728397 1.808443 -0.125453 -3.145081 2.279146 0.817289 0.541819 1.019054 0.772512 -4.106787 -3.203839 -37.458188 6.771266 -7.665996 38.111905 1.937597 -2.868940 23.656311 0.000000 0.000000 0.000000 20.636655 14.525493 -62.480553 122.277163 -55.670997 87.546407 14.084671 18.726528 -4.281334 0.000000 0.000000 0.000000 -7.125000 0.000000 0.000000 -10.318503 34.250667 -2.759239 0.000000 0.000000 0.000000 -5.547161 22.732399 45.221489 -99.550231 -59.651205 -68.260984 -13.876202 6.881982 2.921618 0.000000 0.000000 0.000000 7.125000 0.000000 0.000000 10.302853 32.865219 3.106502
0.930254 15.641134 0.942138 175.006518 -1.793171 -170.333182 0.000000 0.000000 0.000000 -26.064375 -13.308355 -22.066021 4.206976 12.430764 37.273608 -1.068814 17.998308 -8.423514 0.278192 -3.391757 -9.371442 0.000000 0.000000 0.000000 15.008042 -1.613002 -12.055563 -17.000067 -19.781444 81.197616 0.973836 -20.234582 4.022303 -1.296353 7.213708 -20.350220 -7.060791 1.757728 0.082140 -3.192343 2.186638 0.891466 0.670958 0.965162 0.726136 -4.042660 -3.144418 -37.547763 6.799098 -7.592887 38.032014 1.963290 -2.821219 23.607032 0.000000 0.000000 0.000000 20.333865 14.030079 -62.444258 122.026890 -55.744991 87.339822 14.080913 18.802783 -4.399902 0.000000 0.000000 0.000000 -7.125000 0.000000 0.000000 -10.338208 34.370702 -2.734218 0.000000 0.000000 0.000000 -5.407482 23.113796 44.764966 -99.179893 -59.678915 -67.941452 -14.018905 6.904345 2.958554 0.000000 0.000000 0.000000 7.125000 0.000000 0.000000 10.193358 32.907257 3.061806
0.930912 15.621171 0.833276 174.748903 -1.626378 -170.426813 0.000000 0.000000 0.000000 -26.449238 -13.040436 -21.618940 4.242514 12.476116 37.438149 -1.095489 18.222392 -8.684553 0.300852 -3.521592 -9.734996 0.000000 0.000000 0.000000 14.544324 -1.363379 -12.835428 -17.340045 -19.823757 82.199607 1.008641 -20.251895 3.511540 -1.282657 7.176778 -20.240352 -7.401045 1.710021 0.265150 -3.240687 2.094578 0.953616 0.804607 0.910875 0.683505 -3.975553 -3.075843 -37.635624 6.826956 -7.512103 37.960696 1.990803 -2.771125 23.564216 0.000000 0.000000 0.000000 20.049038 13.583569 -62.391821 121.846754 -55.797014 87.190845 14.043023 18.890749 -4.499611 0.000000 0.000000 0.000000 -7.125000 0.000000 0.000000 -10.383420 34.470057 -2.720829 0.000000 0.000000 0.000000 -5.298691 23.513342 44.343552 -98.886866 -59.698817 -67.688470 -14.135363 6.902520 2.986258 0.000000 0.000000 0.000000 7.125000 0.000000 0.000000 10.103462 32.939193 3.026237
0.931737 15.601680 0.724606 174.491664 -1.456210 -170.516938 0.000000 0.000000 0.000000 -26.831614 -12.765631 -21.173416 4.275539 12.518062 37.590629 -1.121304 18.437929 -8.933054 0.324193 -3.653388 -10.104234 0.000000 0.000000 0.000000 14.082913 -1.104490 -13.622939 -17.675983 -19.862740 83.188509 1.042278 -20.267873 3.006137 -1.268939 7.139689 -20.130032 -7.742544 1.662789 0.444270 -3.289202 2.002589 1.013862 0.938970 0.856525 0.641467 -3.907975 -3.005821 -37.723213 6.854819 -7.430105 37.890734 2.018605 -2.720655 23.522422 0.000000 0.000000 0.000000 19.767053 13.144797 -62.336829 121.677716 -55.845559 87.050983 13.999733 18.980569 -4.596335 0.000000 0.000000 0.000000 -7.125000 0.000000 0.000000 -10.432668 34.566139 -2.709281 0.000000 0.000000 0.000000 -5.194787 23.915758 43.927693 -98.606073 -59.717483 -67.446018 -14.247668 6.896868 3.012501 0.000000 0.000000 0.000000 7.125000 0.000000 0.000000 10.016667 32.969530 2.992111
